<svg width="26" height="26" viewBox="0 0 26 26" fill="none" xmlns="http://www.w3.org/2000/svg">
<path d="M10.918 6.05557H17.168V7.44446H10.918V6.05557Z" fill="white"/>
<path d="M10.918 8.83337H17.168V10.2223H10.918V8.83337Z" fill="white"/>
<path d="M10.918 11.6111H17.168V13H10.918V11.6111Z" fill="white"/>
<path d="M10.918 14.3889H17.168V15.7778H10.918V14.3889Z" fill="white"/>
<path d="M10.918 17.1666H17.168V18.5555H10.918V17.1666Z" fill="white"/>
<path d="M8.14062 6.05557H9.52951V7.44446H8.14062V6.05557Z" fill="white"/>
<path d="M8.14062 8.83337H9.52951V10.2223H8.14062V8.83337Z" fill="white"/>
<path d="M8.14062 11.6111H9.52951V13H8.14062V11.6111Z" fill="white"/>
<path d="M8.14062 14.3889H9.52951V15.7778H8.14062V14.3889Z" fill="white"/>
<path d="M8.14062 17.1666H9.52951V18.5555H8.14062V17.1666Z" fill="white"/>
<path d="M19.9457 1.88892H6.05686C5.6885 1.88892 5.33523 2.03524 5.07476 2.29571C4.8143 2.55618 4.66797 2.90945 4.66797 3.2778V22.7222C4.66797 23.0906 4.8143 23.4439 5.07476 23.7043C5.33523 23.9648 5.6885 24.1111 6.05686 24.1111H19.9457C20.3141 24.1111 20.6674 23.9648 20.9278 23.7043C21.1883 23.4439 21.3346 23.0906 21.3346 22.7222V3.2778C21.3346 2.90945 21.1883 2.55618 20.9278 2.29571C20.6674 2.03524 20.3141 1.88892 19.9457 1.88892ZM19.9457 22.7222H6.05686V3.2778H19.9457V22.7222Z" fill="white"/>
</svg>
