<svg width="26" height="18" viewBox="0 0 26 18" fill="none" xmlns="http://www.w3.org/2000/svg">
<path d="M23.2553 16.1038V14.3279C23.2514 11.6574 22.2458 9.08552 20.4372 7.12071C18.6286 5.1559 16.1486 3.94114 13.4876 3.71657V1.89622H16.1515V0.12027H9.04771V1.89622H11.7116V3.71657C9.0506 3.94114 6.57066 5.1559 4.76205 7.12071C2.95344 9.08552 1.9478 11.6574 1.94392 14.3279V16.1038H0.167969V17.8798H25.0312V16.1038H23.2553ZM12.5996 5.44812C14.6456 5.45094 16.6281 6.15902 18.2129 7.45302C19.7977 8.74702 20.888 10.5478 21.3 12.5519H3.89924C4.31121 10.5478 5.40149 8.74702 6.98632 7.45302C8.57114 6.15902 10.5536 5.45094 12.5996 5.44812ZM3.71987 14.3279H21.4794V16.1038H3.71987V14.3279Z" fill="#3A97F4"/>
</svg>
