<svg width="15" height="16" viewBox="0 0 15 16" fill="none" xmlns="http://www.w3.org/2000/svg">
<path d="M12.6565 0.937474C12.2835 0.937474 11.9259 1.08563 11.6621 1.34936C11.3984 1.61308 11.2502 1.97076 11.2502 2.34372C11.2502 2.71669 11.3984 3.07437 11.6621 3.33809C11.9259 3.60182 12.2835 3.74997 12.6565 3.74997C13.0295 3.74997 13.3871 3.60182 13.6509 3.33809C13.9146 3.07437 14.0627 2.71669 14.0627 2.34372C14.0627 1.97076 13.9146 1.61308 13.6509 1.34936C13.3871 1.08563 13.0295 0.937474 12.6565 0.937474ZM10.3127 2.34372C10.3127 1.79382 10.506 1.2614 10.8588 0.839609C11.2116 0.417824 11.7016 0.133533 12.2428 0.0364775C12.7841 -0.0605785 13.3423 0.0357803 13.8197 0.308695C14.2971 0.58161 14.6633 1.0137 14.8543 1.52937C15.0453 2.04504 15.0489 2.61146 14.8645 3.12951C14.6801 3.64757 14.3193 4.08428 13.8454 4.36323C13.3715 4.64219 12.8146 4.74563 12.2722 4.65546C11.7297 4.56529 11.2362 4.28724 10.8781 3.86997L4.57994 6.79497C4.72472 7.25382 4.72472 7.74612 4.57994 8.20497L10.8781 11.13C11.2567 10.6897 11.7852 10.4056 12.3614 10.3328C12.9375 10.26 13.5201 10.4036 13.9964 10.7359C14.4726 11.0682 14.8085 11.5655 14.939 12.1313C15.0695 12.6972 14.9853 13.2913 14.7027 13.7986C14.4201 14.3059 13.9592 14.6903 13.4094 14.8771C12.8596 15.064 12.26 15.0401 11.7268 14.81C11.1936 14.58 10.7647 14.1602 10.5234 13.632C10.2821 13.1039 10.2454 12.5049 10.4206 11.9512L4.12244 9.02622C3.81066 9.38957 3.39508 9.64872 2.9316 9.7688C2.46813 9.88889 1.979 9.86415 1.53 9.69792C1.08101 9.53169 0.693695 9.23194 0.420162 8.83899C0.146629 8.44605 0 7.97875 0 7.49997C0 7.0212 0.146629 6.5539 0.420162 6.16096C0.693695 5.76801 1.08101 5.46826 1.53 5.30203C1.979 5.13579 2.46813 5.11106 2.9316 5.23114C3.39508 5.35123 3.81066 5.61038 4.12244 5.97372L10.4206 3.04872C10.3489 2.8206 10.3125 2.58285 10.3127 2.34372ZM2.344 6.09372C1.97104 6.09372 1.61335 6.24188 1.34963 6.50561C1.08591 6.76933 0.937749 7.12701 0.937749 7.49997C0.937749 7.87293 1.08591 8.23062 1.34963 8.49434C1.61335 8.75807 1.97104 8.90622 2.344 8.90622C2.71696 8.90622 3.07464 8.75807 3.33837 8.49434C3.60209 8.23062 3.75025 7.87293 3.75025 7.49997C3.75025 7.12701 3.60209 6.76933 3.33837 6.50561C3.07464 6.24188 2.71696 6.09372 2.344 6.09372ZM12.6565 11.25C12.2835 11.25 11.9259 11.3981 11.6621 11.6619C11.3984 11.9256 11.2502 12.2833 11.2502 12.6562C11.2502 13.0292 11.3984 13.3869 11.6621 13.6506C11.9259 13.9143 12.2835 14.0625 12.6565 14.0625C13.0295 14.0625 13.3871 13.9143 13.6509 13.6506C13.9146 13.3869 14.0627 13.0292 14.0627 12.6562C14.0627 12.2833 13.9146 11.9256 13.6509 11.6619C13.3871 11.3981 13.0295 11.25 12.6565 11.25Z" fill="#3A97F4"/>
</svg>
