<?xml version="1.0" encoding="utf-8"?>
<!-- Generator: Adobe Illustrator 23.0.5, SVG Export Plug-In . SVG Version: 6.00 Build 0)  -->
<svg version="1.1" id="Слой_1" xmlns="http://www.w3.org/2000/svg" xmlns:xlink="http://www.w3.org/1999/xlink" x="0px" y="0px"
	 viewBox="0 0 425 857" style="enable-background:new 0 0 425 857;" xml:space="preserve">
<style type="text/css">
	.st0{fill:none;stroke:#AFAFAF;stroke-width:22;}
	.st1{fill:#AFAFAF;}
	.st2{clip-path:url(#SVGID_2_);}
	.st3{fill:#1E1E20;}
	.st4{clip-path:url(#SVGID_4_);}
	.st5{fill:#F6FCFF;}
	.st6{fill-rule:evenodd;clip-rule:evenodd;fill:#FFFFFF;filter:url(#Adobe_OpacityMaskFilter);}
	.st7{mask:url(#path-36-inside-1_101_483_1_);fill:#1E1E20;}
	.st8{fill:none;stroke:#1E1E20;stroke-width:16;}
	.st9{fill-rule:evenodd;clip-rule:evenodd;fill:#1E1E20;}
	.st10{fill:#333333;}
</style>
<path class="st0" d="M65,11.7h295c28.2,0,51,22.8,51,51v732c0,28.2-22.8,51-51,51H65c-28.2,0-51-22.8-51-51v-732
	C14,34.5,36.8,11.7,65,11.7z"/>
<path class="st1" d="M422,195.7h1.5c0.8,0,1.5,0.7,1.5,1.5v93c0,0.8-0.7,1.5-1.5,1.5H422V195.7z"/>
<path class="st1" d="M3,176.7H1.5c-0.8,0-1.5,0.7-1.5,1.5v55c0,0.8,0.7,1.5,1.5,1.5H3V176.7z"/>
<path class="st1" d="M3,253.7H1.5c-0.8,0-1.5,0.7-1.5,1.5v55c0,0.8,0.7,1.5,1.5,1.5H3V253.7z"/>
<path class="st1" d="M3,115.7H1.5c-0.8,0-1.5,0.7-1.5,1.5v26c0,0.8,0.7,1.5,1.5,1.5H3V115.7z"/>
<g>
	<defs>
		<path id="SVGID_1_" d="M65,22.7h295c22.1,0,40,17.9,40,40v732c0,22.1-17.9,40-40,40H65c-22.1,0-40-17.9-40-40v-732
			C25,40.6,42.9,22.7,65,22.7z"/>
	</defs>
	<clipPath id="SVGID_2_">
		<use xlink:href="#SVGID_1_"  style="overflow:visible;"/>
	</clipPath>
	<g class="st2">
		<path class="st3" d="M514.8,39.6h295c22.1,0,40,17.9,40,40v732c0,22.1-17.9,40-40,40h-295c-22.1,0-40-17.9-40-40v-732
			C474.8,57.6,492.7,39.6,514.8,39.6z"/>
		<g>
			<defs>
				<rect id="SVGID_3_" x="474.8" y="39.6" width="375" height="812"/>
			</defs>
			<clipPath id="SVGID_4_">
				<use xlink:href="#SVGID_3_"  style="overflow:visible;"/>
			</clipPath>
			<g class="st4">
				<rect x="474.8" y="39.6" class="st5" width="375" height="812"/>
				<rect x="474.8" y="39.6" class="st5" width="375" height="812"/>
			</g>
		</g>
		<defs>
			<filter id="Adobe_OpacityMaskFilter" filterUnits="userSpaceOnUse" x="474.3" y="39.1" width="376" height="813.2">
				<feColorMatrix  type="matrix" values="1 0 0 0 0  0 1 0 0 0  0 0 1 0 0  0 0 0 1 0"/>
			</filter>
		</defs>
		<mask maskUnits="userSpaceOnUse" x="474.3" y="39.1" width="376" height="813.2" id="path-36-inside-1_101_483_1_">
			<path class="st6" d="M478.1,56c-3.3,6.4-3.3,14.8-3.3,31.6v716.2c0,16.8,0,25.2,3.3,31.6c2.9,5.6,7.5,10.2,13.1,13.1
				c6.4,3.3,14.8,3.3,31.6,3.3h279c16.8,0,25.2,0,31.6-3.3c5.6-2.9,10.2-7.5,13.1-13.1c3.3-6.4,3.3-14.8,3.3-31.6V87.6
				c0-16.8,0-25.2-3.3-31.6c-2.9-5.6-7.5-10.2-13.1-13.1c-6.4-3.3-14.8-3.3-31.6-3.3h-35.2c-3.1,0-5.4,2.3-5.4,5.4v-5.4v13.6
				c0,8-6.4,14.4-14.4,14.4H577.9c-8,0-14.4-6.4-14.4-14.4v-7.4c0-3.1-3.1-6.2-6.2-6.2h-34.5c-16.8,0-25.2,0-31.6,3.3
				C485.5,45.8,480.9,50.4,478.1,56z"/>
		</mask>
		<path class="st7" d="M478.1,56l-0.4-0.2L478.1,56z M478.1,835.5l0.4-0.2l0,0L478.1,835.5z M491.2,848.6l-0.2,0.4l0,0L491.2,848.6z
			 M833.4,848.6l0.2,0.4L833.4,848.6z M846.5,835.5l-0.4-0.2L846.5,835.5z M846.5,56l-0.4,0.2L846.5,56z M833.4,42.9l0.2-0.4
			L833.4,42.9z M761.1,39.6h0.5h-1H761.1z M761.1,53.2h-0.5l0,0H761.1z M563.5,45.8h0.5v0L563.5,45.8z M491.2,42.9l-0.2-0.4
			L491.2,42.9z M475.3,87.6c0-8.4,0-14.7,0.4-19.7c0.4-5,1.2-8.6,2.8-11.7l-0.9-0.5c-1.7,3.3-2.5,7.1-2.9,12.1
			c-0.4,5-0.4,11.4-0.4,19.7H475.3z M475.3,803.9V87.6h-1v716.2H475.3z M478.5,835.3c-1.6-3.1-2.4-6.8-2.8-11.7
			c-0.4-5-0.4-11.3-0.4-19.7h-1c0,8.4,0,14.7,0.4,19.7c0.4,5,1.2,8.8,2.9,12.1L478.5,835.3z M491.4,848.2
			c-5.6-2.8-10.1-7.3-12.9-12.9l-0.9,0.5c2.9,5.7,7.6,10.4,13.3,13.3L491.4,848.2z M522.8,851.4c-8.4,0-14.7,0-19.7-0.4
			c-5-0.4-8.6-1.2-11.7-2.8l-0.5,0.9c3.3,1.7,7.1,2.5,12.1,2.9c5,0.4,11.4,0.4,19.7,0.4V851.4z M801.8,851.4h-279v1h279V851.4z
			 M833.2,848.2c-3.1,1.6-6.8,2.4-11.7,2.8c-5,0.4-11.3,0.4-19.7,0.4v1c8.4,0,14.7,0,19.7-0.4c5-0.4,8.8-1.2,12.1-2.9L833.2,848.2z
			 M846.1,835.3c-2.8,5.6-7.3,10.1-12.9,12.9l0.5,0.9c5.7-2.9,10.4-7.6,13.3-13.3L846.1,835.3z M849.3,803.9c0,8.4,0,14.7-0.4,19.7
			c-0.4,5-1.2,8.6-2.8,11.7l0.9,0.5c1.7-3.3,2.5-7.1,2.9-12.1c0.4-5,0.4-11.4,0.4-19.7H849.3z M849.3,87.6v716.2h1V87.6H849.3z
			 M846.1,56.2c1.6,3.1,2.4,6.8,2.8,11.7c0.4,5,0.4,11.3,0.4,19.7h1c0-8.4,0-14.7-0.4-19.7c-0.4-5-1.2-8.8-2.9-12.1L846.1,56.2z
			 M833.2,43.4c5.6,2.8,10.1,7.3,12.9,12.9l0.9-0.5c-2.9-5.7-7.6-10.4-13.3-13.3L833.2,43.4z M801.8,40.1c8.4,0,14.7,0,19.7,0.4
			c5,0.4,8.6,1.2,11.7,2.8l0.5-0.9c-3.3-1.7-7.1-2.5-12.1-2.9c-5-0.4-11.4-0.4-19.7-0.4V40.1z M766.5,40.1h35.2v-1h-35.2V40.1z
			 M761.6,45.1c0-2.8,2.1-4.9,4.9-4.9v-1c-3.4,0-5.9,2.6-5.9,5.9H761.6z M760.6,39.6v5.4h1v-5.4H760.6z M761.6,53.2V39.6h-1v13.6
			H761.6z M746.7,68.2c8.2,0,14.9-6.7,14.9-14.9h-1c0,7.7-6.2,13.9-13.9,13.9V68.2z M577.9,68.2h168.8v-1H577.9V68.2z M563,53.2
			c0,8.2,6.7,14.9,14.9,14.9v-1c-7.7,0-13.9-6.2-13.9-13.9H563z M563,45.8v7.4h1v-7.4H563z M557.3,40.1c1.4,0,2.8,0.7,3.9,1.8
			c1.1,1.1,1.8,2.5,1.8,3.9l1,0c0-1.7-0.9-3.4-2.1-4.6c-1.2-1.2-2.9-2.1-4.6-2.1V40.1z M522.8,40.1h34.5v-1h-34.5V40.1z M491.4,43.4
			c3.1-1.6,6.8-2.4,11.7-2.8c5-0.4,11.3-0.4,19.7-0.4v-1c-8.4,0-14.7,0-19.7,0.4c-5,0.4-8.8,1.2-12.1,2.9L491.4,43.4z M478.5,56.2
			c2.8-5.6,7.3-10.1,12.9-12.9l-0.5-0.9c-5.7,2.9-10.4,7.6-13.3,13.3L478.5,56.2z"/>
	</g>
</g>
<path class="st8" d="M65,14.7h295c26.5,0,48,21.5,48,48v732c0,26.5-21.5,48-48,48H65c-26.5,0-48-21.5-48-48v-732
	C17,36.2,38.5,14.7,65,14.7z"/>
<path class="st9" d="M107.9,22.7c3.1,0,6.2,3.1,6.2,6.2v7.4c0,8,6.4,14.4,14.4,14.4h168.8c8,0,14.4-6.4,14.4-14.4V22.7H114.1l0,0
	H107.9z M311.7,28.2c0-3.1,2.3-5.4,5.4-5.4h-5.4V28.2z"/>
<circle class="st10" cx="245.4" cy="32.7" r="6"/>
<path class="st10" d="M178.4,28.7h42c2.2,0,4,1.8,4,4l0,0c0,2.2-1.8,4-4,4h-42c-2.2,0-4-1.8-4-4l0,0
	C174.4,30.5,176.2,28.7,178.4,28.7z"/>
</svg>
