<svg width="60" height="53" viewBox="0 0 60 53" fill="none" xmlns="http://www.w3.org/2000/svg">
<path d="M26.4044 52.9126C22.226 52.9113 18.1075 51.9187 14.3872 50.0163C10.667 48.1139 7.45119 45.356 5.00399 41.9692C2.55679 38.5824 0.948029 34.6633 0.309868 30.5339C-0.328293 26.4045 0.0223578 22.1826 1.33301 18.2151C2.64367 14.2476 4.87693 10.6476 7.84933 7.7109C10.8217 4.77423 14.4485 2.58466 18.4316 1.32207C22.4147 0.0594842 26.6405 -0.240091 30.7619 0.447955C34.8833 1.136 38.7826 2.79203 42.1396 5.28001C42.5888 5.64509 42.8799 6.16943 42.9522 6.74381C43.0245 7.31818 42.8724 7.89831 42.5277 8.36334C42.1829 8.82837 41.672 9.14245 41.1014 9.24016C40.5308 9.33787 39.9445 9.21167 39.4646 8.88786C35.5023 5.94614 30.6636 4.42695 25.7309 4.57598C20.7983 4.72502 16.0601 6.53355 12.2827 9.70912C8.50521 12.8847 5.90936 17.2416 4.91492 22.0753C3.92047 26.9089 4.58556 31.9367 6.80264 36.3456C9.01972 40.7544 12.6592 44.2865 17.1324 46.3706C21.6056 48.4548 26.651 48.9691 31.4528 47.8304C36.2545 46.6918 40.5318 43.9667 43.5929 40.0959C46.654 36.2251 48.3199 31.4349 48.3212 26.5C48.318 25.3443 48.224 24.1905 48.0402 23.0495C47.9945 22.7543 48.0073 22.453 48.078 22.1628C48.1487 21.8725 48.2759 21.5991 48.4523 21.358C48.6286 21.1169 48.8508 20.9129 49.106 20.7576C49.3612 20.6024 49.6445 20.499 49.9397 20.4532C50.2349 20.4074 50.5362 20.4203 50.8265 20.491C51.1167 20.5617 51.3902 20.6888 51.6312 20.8652C51.8723 21.0416 52.0763 21.2637 52.2316 21.519C52.3868 21.7742 52.4902 22.0575 52.536 22.3527C52.7369 23.7258 52.8308 25.1124 52.817 26.5C52.811 33.5032 50.0264 40.2179 45.0743 45.17C40.1223 50.122 33.4076 52.9066 26.4044 52.9126Z" fill="#3A97F4"/>
<path d="M29.2148 34.9296C28.6196 34.9271 28.0497 34.6886 27.6301 34.2664L16.9526 23.589C16.5844 23.159 16.3919 22.6058 16.4138 22.0401C16.4356 21.4744 16.6702 20.9377 17.0705 20.5374C17.4708 20.137 18.0075 19.9025 18.5732 19.8807C19.139 19.8588 19.6921 20.0512 20.1221 20.4195L29.2148 29.5009L56.2905 2.43645C56.7206 2.06819 57.2737 1.87576 57.8394 1.89761C58.4052 1.91946 58.9418 2.15399 59.3422 2.55433C59.7425 2.95466 59.977 3.49132 59.9989 4.05706C60.0207 4.62279 59.8283 5.17594 59.46 5.60597L30.7996 34.2664C30.3799 34.6886 29.81 34.9271 29.2148 34.9296Z" fill="#7BD489"/>
</svg>
