<svg width="21" height="15" viewBox="0 0 21 15" fill="none" xmlns="http://www.w3.org/2000/svg">
<path d="M2.98438 2.54688H0.75V3.00002V12.5781H1.34375H3.29688H5.78125V2.54688H2.98438ZM18.5278 2.54688H15.7636V12.5625H18.6719H20.0156H20.75V3.00002V2.54688H18.5278Z" fill="#D52B1E"/>
<path d="M6.30525 0.833374H15.1941V14.9166H6.30525V0.833374Z" fill="#EEEEEE"/>
<path d="M11.0913 10.1029C11.7568 10.1782 12.3535 10.2459 13.0185 10.3201L12.8491 9.77736C12.8366 9.73066 12.8383 9.68143 12.854 9.63566C12.8697 9.58989 12.8986 9.54955 12.9374 9.51953L14.8702 7.98446L14.4702 7.80083C14.2941 7.73963 14.3424 7.64267 14.4063 7.40975L14.7013 6.36109L13.5785 6.59238C13.4691 6.60863 13.3963 6.54093 13.3796 6.47593L13.2346 5.98247L12.3468 6.95421C12.2207 7.11021 11.9652 7.11021 12.0446 6.75055L12.4241 4.78215L11.9146 5.03944C11.7718 5.11744 11.6291 5.13044 11.5496 4.99123L10.8468 3.70966V3.74161V3.70966L10.1441 4.99123C10.0641 5.13044 9.92129 5.11744 9.77851 5.03944L9.26962 4.78215L9.64906 6.75055C9.72906 7.11021 9.47295 7.11021 9.34684 6.95421L8.45906 5.98301L8.31462 6.47647C8.29795 6.54147 8.22462 6.60918 8.11517 6.59293L6.9924 6.36164L7.2874 7.41029C7.35017 7.64321 7.39906 7.74017 7.22295 7.80137L6.82295 7.985L8.75573 9.52007C8.8324 9.57803 8.87129 9.68257 8.84351 9.7779L8.67406 10.3206L10.6018 10.1034C10.6607 10.1034 10.6996 10.1354 10.6991 10.2015L10.5802 12.2078H11.1113L10.993 10.2015C10.9941 10.1349 11.0324 10.1029 11.0913 10.1029Z" fill="#D52B1E"/>
</svg>
