<svg width="20" height="20" viewBox="0 0 20 20" fill="none" xmlns="http://www.w3.org/2000/svg">
<g clip-path="url(#clip0_252_2813)">
<path d="M17.5 1.25024C17.8315 1.25024 18.1495 1.38194 18.3839 1.61636C18.6183 1.85078 18.75 2.16872 18.75 2.50024V17.5002C18.75 17.8318 18.6183 18.1497 18.3839 18.3841C18.1495 18.6185 17.8315 18.7502 17.5 18.7502H2.5C2.16848 18.7502 1.85054 18.6185 1.61612 18.3841C1.3817 18.1497 1.25 17.8318 1.25 17.5002V2.50024C1.25 2.16872 1.3817 1.85078 1.61612 1.61636C1.85054 1.38194 2.16848 1.25024 2.5 1.25024H17.5ZM2.5 0.000244141C1.83696 0.000244141 1.20107 0.263636 0.732233 0.732477C0.263392 1.20132 0 1.8372 0 2.50024L0 17.5002C0 18.1633 0.263392 18.7992 0.732233 19.268C1.20107 19.7369 1.83696 20.0002 2.5 20.0002H17.5C18.163 20.0002 18.7989 19.7369 19.2678 19.268C19.7366 18.7992 20 18.1633 20 17.5002V2.50024C20 1.8372 19.7366 1.20132 19.2678 0.732477C18.7989 0.263636 18.163 0.000244141 17.5 0.000244141L2.5 0.000244141Z" fill="#3A97F4"/>
<path d="M11.1624 8.23524L8.29994 8.59399L8.19744 9.06899L8.75994 9.17274C9.12744 9.26024 9.19994 9.39274 9.11994 9.75899L8.19744 14.094C7.95494 15.2152 8.32869 15.7427 9.20744 15.7427C9.88869 15.7427 10.6799 15.4277 11.0387 14.9952L11.1487 14.4752C10.8987 14.6952 10.5337 14.7827 10.2912 14.7827C9.94744 14.7827 9.82244 14.5415 9.91119 14.1165L11.1624 8.23524ZM11.2499 5.62524C11.2499 5.95676 11.1182 6.27471 10.8838 6.50913C10.6494 6.74355 10.3315 6.87524 9.99994 6.87524C9.66842 6.87524 9.35048 6.74355 9.11606 6.50913C8.88164 6.27471 8.74994 5.95676 8.74994 5.62524C8.74994 5.29372 8.88164 4.97578 9.11606 4.74136C9.35048 4.50694 9.66842 4.37524 9.99994 4.37524C10.3315 4.37524 10.6494 4.50694 10.8838 4.74136C11.1182 4.97578 11.2499 5.29372 11.2499 5.62524Z" fill="#3A97F4"/>
</g>
<defs>
<clipPath id="clip0_252_2813">
<rect width="20" height="20" fill="white" transform="translate(0 0.000244141)"/>
</clipPath>
</defs>
</svg>
