<?xml version="1.0" encoding="utf-8"?>
<!-- Generator: Adobe Illustrator 23.0.5, SVG Export Plug-In . SVG Version: 6.00 Build 0)  -->
<svg version="1.1" id="Слой_1" xmlns="http://www.w3.org/2000/svg" xmlns:xlink="http://www.w3.org/1999/xlink" x="0px" y="0px"
	 viewBox="0 0 33 33" enable-background="new 0 0 33 33" xml:space="preserve">
<path fill="#3B97F4" d="M27.8,5.2h-22c-1.4,0-2.5,1.1-2.5,2.5v18c0,1.4,1.1,2.5,2.5,2.5h22c1.4,0,2.5-1.1,2.5-2.5v-18
	C30.3,6.3,29.2,5.2,27.8,5.2z M16.8,20.2c-1.9,0-3.5-1.6-3.5-3.5c0-1.9,1.6-3.5,3.5-3.5s3.5,1.6,3.5,3.5
	C20.3,18.6,18.8,20.2,16.8,20.2z M12.9,24.3c2.4-1.5,5.5-1.5,7.9,0c0.4,0.3,0.8,0.6,1.1,0.9H11.8C12.1,24.9,12.5,24.6,12.9,24.3z
	 M27.3,25.2h-1.6c-0.9-1.4-2-2.6-3.4-3.4c-0.3-0.2-0.6-0.3-0.9-0.5c1.2-1.2,1.9-2.8,1.9-4.6c0-3.6-2.9-6.5-6.5-6.5s-6.5,2.9-6.5,6.5
	c0,1.8,0.7,3.4,1.9,4.6c-0.3,0.2-0.6,0.3-0.9,0.5c-1.4,0.9-2.5,2-3.4,3.4H6.3v-17h21V25.2z"/>
</svg>
