<?xml version="1.0" encoding="utf-8"?>
<!-- Generator: Adobe Illustrator 23.0.5, SVG Export Plug-In . SVG Version: 6.00 Build 0)  -->
<svg version="1.1" id="Слой_1" xmlns="http://www.w3.org/2000/svg" xmlns:xlink="http://www.w3.org/1999/xlink" x="0px" y="0px"
	 viewBox="0 0 32 33" enable-background="new 0 0 32 33" xml:space="preserve">
<g>
	<path fill="#B3D9FF" d="M27.2,21.7L16,28.2L4.8,21.7c-0.7-0.4-1.6-0.2-2.1,0.5c-0.4,0.7-0.2,1.6,0.5,2.1l12,7
		c0.2,0.1,0.5,0.2,0.8,0.2c0.3,0,0.5-0.1,0.8-0.2l12-7c0.7-0.4,1-1.3,0.5-2.1C28.9,21.5,28,21.3,27.2,21.7z"/>
	<path fill="#B3D9FF" d="M27.2,15.7L16,22.2L4.8,15.7c-0.7-0.4-1.6-0.2-2.1,0.5c-0.4,0.7-0.2,1.6,0.5,2.1l12,7
		c0.2,0.1,0.5,0.2,0.8,0.2c0.3,0,0.5-0.1,0.8-0.2l12-7c0.7-0.4,1-1.3,0.5-2.1C28.9,15.5,28,15.3,27.2,15.7z"/>
	<path fill="#B3D9FF" d="M3.2,12.3l12,7c0.2,0.1,0.5,0.2,0.8,0.2c0.3,0,0.5-0.1,0.8-0.2l12-7c0.5-0.3,0.7-0.8,0.7-1.3
		s-0.3-1-0.7-1.3l-12-7c-0.5-0.3-1-0.3-1.5,0l-12,7C2.8,9.9,2.5,10.4,2.5,11S2.8,12,3.2,12.3z M16,5.7l9,5.3l-9,5.3L7,11L16,5.7z"/>
</g>
</svg>
