<?xml version="1.0" encoding="utf-8"?>
<!-- Generator: Adobe Illustrator 23.0.5, SVG Export Plug-In . SVG Version: 6.00 Build 0)  -->
<svg version="1.1" id="Слой_1" xmlns="http://www.w3.org/2000/svg" xmlns:xlink="http://www.w3.org/1999/xlink" x="0px" y="0px"
	 viewBox="0 0 32 33" enable-background="new 0 0 32 33" xml:space="preserve">
<g>
	<path fill="#B3D9FF" d="M27.2,23.1l1.5-1c0.4-0.3,0.6-0.8,0.5-1.3c-0.1-0.5-0.5-0.9-1-1l-9.3-1.9c-0.4-0.1-0.8,0-1.1,0.3
		c-0.3,0.3-0.4,0.7-0.3,1.1l1.9,9.3c0.1,0.5,0.5,0.9,1,1c0.1,0,0.2,0,0.2,0c0.4,0,0.8-0.2,1-0.6l1-1.5l1.7,1.7
		c0.5,0.5,1.3,0.5,1.8,0l2.8-2.8c0.5-0.5,0.5-1.3,0-1.8L27.2,23.1z M25.2,26.7l-1.9-1.9c-0.2-0.2-0.6-0.4-0.9-0.4c0,0-0.1,0-0.1,0
		c-0.4,0-0.7,0.2-0.9,0.6l-0.2,0.3l-0.9-4.5l4.5,0.9l-0.3,0.2c-0.3,0.2-0.5,0.5-0.6,0.9s0.1,0.7,0.4,1l1.9,1.9L25.2,26.7z"/>
	<path fill="#B3D9FF" d="M28.7,3.8c-0.5-0.5-1.2-0.8-2-0.8H5.3c-0.8,0-1.5,0.3-2,0.8s-0.8,1.2-0.8,2v21.3c0,0.8,0.3,1.5,0.8,2
		s1.2,0.8,2,0.8H14c0.8,0,1.5-0.7,1.5-1.5S14.8,27,14,27H5.5V6h21v9.2c0,0.8,0.7,1.5,1.5,1.5s1.5-0.7,1.5-1.5V5.8
		C29.5,5.1,29.2,4.4,28.7,3.8z"/>
</g>
</svg>
