<?xml version="1.0" encoding="utf-8"?>
<!-- Generator: Adobe Illustrator 23.0.5, SVG Export Plug-In . SVG Version: 6.00 Build 0)  -->
<svg version="1.1" id="Слой_1" xmlns="http://www.w3.org/2000/svg" xmlns:xlink="http://www.w3.org/1999/xlink" x="0px" y="0px"
	 viewBox="0 0 33 33" enable-background="new 0 0 33 33" xml:space="preserve">
<path fill="#B3D9FF" d="M16.1,6.3c-8.3,0-14.5,3.2-14.5,7.5v6c0,2.5,2.2,4.7,5.7,6C7.5,26,7.6,26,7.8,26.1c2.3,0.8,5.1,1.3,8.3,1.3
	c3.1,0,6-0.5,8.3-1.3c0.2,0,0.4-0.1,0.5-0.2c3.5-1.3,5.7-3.5,5.7-6v-6C30.6,9.5,24.4,6.3,16.1,6.3z M16.1,9.3
	c7.1,0,11.5,2.6,11.5,4.5s-4.4,4.5-11.5,4.5c-7.1,0-11.5-2.6-11.5-4.5S9,9.3,16.1,9.3z M14.6,21.3v3c-1.9-0.1-3.6-0.4-5-0.8v-2.9
	C11.1,20.9,12.8,21.2,14.6,21.3z M17.6,21.3c1.8-0.1,3.5-0.3,5-0.7v2.9c-1.4,0.4-3.1,0.7-5,0.8V21.3z M4.6,19.8v-1.3
	c0.6,0.4,1.3,0.8,2,1.1v2.7C5.3,21.5,4.6,20.6,4.6,19.8z M25.6,22.2v-2.7c0.7-0.3,1.4-0.7,2-1.1v1.3C27.6,20.6,26.9,21.5,25.6,22.2z
	"/>
</svg>
