<?xml version="1.0" encoding="utf-8"?>
<!-- Generator: Adobe Illustrator 23.0.5, SVG Export Plug-In . SVG Version: 6.00 Build 0)  -->
<svg version="1.1" id="Слой_1" xmlns="http://www.w3.org/2000/svg" xmlns:xlink="http://www.w3.org/1999/xlink" x="0px" y="0px"
	 viewBox="0 0 16 16" enable-background="new 0 0 16 16" xml:space="preserve">
<path fill="#3A97F4" d="M10.8,2.8c0-0.5,0.2-1.1,0.5-1.5c0.4-0.4,0.8-0.7,1.4-0.8c0.5-0.1,1.1,0,1.6,0.3c0.5,0.3,0.8,0.7,1,1.2
	s0.2,1.1,0,1.6c-0.2,0.5-0.5,1-1,1.2c-0.5,0.3-1,0.4-1.6,0.3c-0.5-0.1-1-0.4-1.4-0.8L5.1,7.3c0.1,0.5,0.1,1,0,1.4l6.3,2.9
	c0.4-0.4,0.9-0.7,1.5-0.8c0.6-0.1,1.2,0.1,1.6,0.4c0.5,0.3,0.8,0.8,0.9,1.4c0.1,0.6,0,1.2-0.2,1.7c-0.3,0.5-0.7,0.9-1.3,1.1
	c-0.5,0.2-1.1,0.2-1.7-0.1c-0.5-0.2-1-0.6-1.2-1.2c-0.2-0.5-0.3-1.1-0.1-1.7L4.6,9.5c-0.3,0.4-0.7,0.6-1.2,0.7
	c-0.5,0.1-1,0.1-1.4-0.1C1.6,10,1.2,9.7,0.9,9.3C0.6,8.9,0.5,8.5,0.5,8s0.1-0.9,0.4-1.3C1.2,6.3,1.6,6,2,5.8C2.5,5.6,3,5.6,3.4,5.7
	c0.5,0.1,0.9,0.4,1.2,0.7l6.3-2.9C10.8,3.3,10.8,3.1,10.8,2.8L10.8,2.8z"/>
</svg>
